<svg baseProfile="tiny" height="76" version="1.2" width="419" xmlns="http://www.w3.org/2000/svg" xmlns:ev="http://www.w3.org/2001/xml-events" xmlns:xlink="http://www.w3.org/1999/xlink"><defs><linearGradient id="gradient" x1="0%" x2="100%" y1="0%" y2="0%"><stop offset="0" stop-color="#407adb"></stop><stop offset="1" stop-color="#b247de"></stop></linearGradient></defs><rect fill="none" height="70" rx="17.0" ry="17.0" stroke="url(#gradient)" stroke-width="6" width="413" x="3.0" y="3.0"></rect><rect fill="url(#gradient)" height="50" rx="7.0" ry="7.0" width="393.0" x="13" y="13.0"></rect><rect fill="white" height="50" width="11.9091" x="24.9091" y="13.0"></rect><rect fill="white" height="50" width="11.9091" x="48.7273" y="13.0"></rect><rect fill="white" height="50" width="11.9091" x="72.5455" y="13.0"></rect><rect fill="white" height="50" width="11.9091" x="96.3636" y="13.0"></rect><rect fill="white" height="50" width="11.9091" x="120.1818" y="13.0"></rect><rect fill="white" height="50" width="11.9091" x="144.0" y="13.0"></rect><rect fill="white" height="50" width="11.9091" x="167.8182" y="13.0"></rect><rect fill="white" height="50" width="11.9091" x="191.6364" y="13.0"></rect><rect fill="white" height="50" width="11.9091" x="215.4545" y="13.0"></rect><rect fill="white" height="50" width="11.9091" x="239.2727" y="13.0"></rect><rect fill="white" height="50" width="11.9091" x="263.0909" y="13.0"></rect><rect fill="white" height="50" width="11.9091" x="286.9091" y="13.0"></rect><rect fill="white" height="50" width="11.9091" x="310.7273" y="13.0"></rect><rect fill="white" height="50" width="11.9091" x="334.5455" y="13.0"></rect><rect fill="white" height="50" width="11.9091" x="358.3636" y="13.0"></rect><rect fill="white" height="50" width="11.9091" x="382.1818" y="13.0"></rect></svg>